<?xml version="1.0" encoding="utf-8"?>
<!-- Generator: Adobe Illustrator 25.4.1, SVG Export Plug-In . SVG Version: 6.00 Build 0)  -->
<svg version="1.1" id="Capa_1" xmlns="http://www.w3.org/2000/svg" xmlns:xlink="http://www.w3.org/1999/xlink" x="0px" y="0px"
	 viewBox="0 0 135.9 69" style="enable-background:new 0 0 135.9 69;" xml:space="preserve">
<style type="text/css">
	.st0{fill:#FFFFFF;stroke:#000000;stroke-width:1.9386;stroke-miterlimit:10;}
	.st1{enable-background:new    ;}
</style>
<g id="a">
</g>
<g id="b">
	<g id="c">
		<path class="st0" d="M11.7,1.5h112.6c5,0,9.1,4.1,9.1,9.1v47.7c0,5-4.1,9.1-9.1,9.1H11.7c-5,0-9.1-4.1-9.1-9.1V10.7
			C2.6,5.6,6.6,1.5,11.7,1.5z"/>
		<g class="st1">
			<path d="M28.5,29.7c0,1.3-0.6,2.4-1.7,3.1c0.6,0.2,1.2,0.6,1.6,1.2c0.4,0.6,0.6,1.4,0.6,2.4s-0.4,1.9-1.2,2.5
				c-0.8,0.6-1.9,0.9-3.3,0.9H20c-0.2,0-0.4-0.1-0.5-0.2c-0.1-0.1-0.2-0.3-0.2-0.6V26.6c0-0.1,0-0.2,0.1-0.3c0,0,0.1-0.1,0.3-0.1H24
				C27,26.2,28.5,27.4,28.5,29.7z M22.9,29.4v2.5H23c1.2,0,1.9-0.4,1.9-1.2c0-0.5-0.1-0.8-0.4-1c-0.2-0.2-0.6-0.3-1.2-0.3H22.9z
				 M22.9,34.2v2.5h0.3c0.6,0,1-0.1,1.2-0.3c0.3-0.2,0.4-0.5,0.4-1c0-0.5-0.1-0.8-0.4-0.9s-0.6-0.3-1.2-0.3H22.9z"/>
			<path d="M31.6,32.7c-0.4-0.6-0.5-1.2-0.5-1.6s0.1-0.7,0.3-0.8c0.7-0.3,1.7-0.5,3-0.5c1.3,0,2.2,0.3,2.7,0.9
				c0.5,0.6,0.8,1.5,0.8,2.7v3.1h0.7c0.2,0,0.4,0.1,0.5,0.4c0.1,0.3,0.2,0.6,0.2,1.1s-0.1,0.9-0.3,1.3S38.5,40,38.1,40
				c-0.7,0-1.3-0.2-1.7-0.6c-0.2-0.2-0.3-0.3-0.4-0.6c-0.6,0.8-1.5,1.1-2.8,1.1c-0.9,0-1.7-0.3-2.4-1c-0.6-0.7-1-1.5-1-2.4
				c0-2.1,1.3-3.2,3.8-3.2h1.1v-0.2c0-0.3-0.1-0.6-0.2-0.6s-0.4-0.1-0.8-0.1C33.3,32.4,32.6,32.5,31.6,32.7z M33.2,36.3
				c0,0.3,0.1,0.5,0.2,0.6c0.2,0.1,0.4,0.2,0.6,0.2c0.2,0,0.5-0.1,0.6-0.3v-1.5h-0.5C33.5,35.4,33.2,35.7,33.2,36.3z"/>
			<path d="M43.6,35c0,1.3,0.5,1.9,1.4,1.9c0.6,0,1.1-0.1,1.6-0.4c0.2,0,0.4,0.3,0.5,1c0.1,0.7,0.2,1.1,0.2,1.4s0,0.4-0.1,0.5
				c-0.7,0.4-1.6,0.6-2.8,0.6c-1.2,0-2.2-0.4-3-1.3c-0.8-0.9-1.3-2.1-1.3-3.6c0-1.5,0.4-2.8,1.2-3.7s1.9-1.4,3.3-1.4
				c1.4,0,2.3,0.3,2.8,1c0.1,0.1,0.2,0.4,0.2,0.6c0,0.3-0.1,0.6-0.2,1c-0.2,0.8-0.5,1.3-0.9,1.4c-0.1,0-0.1,0-0.2,0
				c-0.1,0-0.2-0.1-0.4-0.2C45.5,33.3,45,33,44.7,33c-0.3,0-0.6,0.2-0.8,0.5C43.7,33.8,43.6,34.3,43.6,35z"/>
			<path d="M48.7,26.4c0-0.2,0.6-0.3,1.8-0.3c1.1,0,1.6,0.1,1.6,0.3v7.4l1.9-3.5c0.1-0.2,0.6-0.3,1.6-0.3c1,0,1.7,0.1,1.9,0.2
				l-2.5,4.1l2.9,5.4c0,0.1-0.2,0.1-0.7,0.1c-0.5,0-0.9,0-1.3,0c-1.2,0-1.9-0.1-2-0.2l-1.9-4.3v4.3c0,0.2-0.6,0.3-1.7,0.3
				c-1.1,0-1.7-0.1-1.7-0.2V26.4z"/>
			<path d="M62.5,39.8c-1.3,0-2.2-0.4-2.9-1.2c-0.7-0.8-1-2-1-3.6c0-1.6,0.4-2.8,1.3-3.7c0.9-0.9,2.1-1.3,3.6-1.3s2.7,0.3,3.7,1v9.7
				c0,1-0.4,1.7-1.2,2.2s-1.8,0.8-3,0.8c-1.2,0-2.3-0.2-3.3-0.5c-0.1-0.3-0.2-0.6-0.2-0.8c0-0.8,0.1-1.4,0.4-1.8
				c0.9,0.4,1.8,0.6,2.8,0.6c0.7,0,1.1-0.3,1.1-0.8v-0.6C63.3,39.7,62.9,39.8,62.5,39.8z M63.4,33.1c-0.9,0-1.3,0.7-1.3,2
				c0,0.8,0.2,1.3,0.5,1.6c0.2,0.2,0.4,0.3,0.7,0.3s0.4,0,0.6-0.1v-3.7C63.7,33.1,63.6,33.1,63.4,33.1z"/>
			<path d="M73.2,39.8c0,0.1-0.6,0.1-1.8,0.1c-1.2,0-1.8-0.1-1.8-0.2v-6.4h-0.5c-0.2,0-0.4-0.1-0.5-0.4c-0.1-0.3-0.2-0.6-0.2-0.9
				c0-1.4,0.4-2.1,1.2-2.1c0.6,0,1.1,0.2,1.5,0.5s0.6,0.8,0.6,1.2c0.3-0.5,0.6-1,1.1-1.3c0.5-0.3,0.9-0.5,1.4-0.5
				c0.7,0,1.2,0.2,1.4,0.6c0,0.1,0.1,0.3,0.1,0.5s-0.1,0.6-0.2,1.1c-0.1,0.5-0.2,0.9-0.4,1.1s-0.2,0.3-0.2,0.3c0,0-0.1,0-0.4-0.1
				c-0.2-0.1-0.4-0.1-0.6-0.1c-0.5,0-0.7,0.4-0.7,1.2V39.8z"/>
			<path d="M77.5,38.6c-0.8-0.9-1.2-2.1-1.2-3.7c0-1.6,0.4-2.8,1.2-3.7c0.8-0.9,1.9-1.3,3.3-1.3c1.4,0,2.5,0.4,3.3,1.3
				c0.8,0.9,1.2,2.1,1.2,3.7c0,1.6-0.4,2.8-1.2,3.7c-0.8,0.9-1.9,1.3-3.3,1.3C79.4,40,78.3,39.5,77.5,38.6z M80.8,33.1
				c-0.7,0-1.1,0.6-1.1,1.8c0,1.2,0.4,1.8,1.1,1.8c0.7,0,1.1-0.6,1.1-1.8C81.9,33.7,81.5,33.1,80.8,33.1z"/>
			<path d="M86.5,30.2c0-0.1,0.6-0.2,1.7-0.2c1.1,0,1.7,0.1,1.7,0.2v5.7c0,0.6,0.2,1,0.6,1c0.3,0,0.7-0.1,1-0.4v-6.2
				c0-0.1,0.5-0.2,1.6-0.2s1.6,0.1,1.6,0.2v6.4h0.5c0.4,0,0.7,0.4,0.7,1.3c0,0.4-0.1,0.9-0.3,1.3c-0.3,0.6-0.6,0.9-1,0.9
				c-0.9,0-1.5-0.4-1.9-1.1l0,0c-0.8,0.7-1.6,1-2.5,1c-1.3,0-2.2-0.3-2.8-0.9c-0.6-0.6-0.9-1.7-0.9-3.1V30.2z"/>
			<path d="M101.2,39.7c0,0.1-0.5,0.1-1.4,0.1c-1.3,0-1.9-0.1-1.9-0.2v-6.3h-0.5c-0.3,0-0.6-0.3-0.7-0.9c0-0.2,0-0.3,0-0.5
				c0-0.4,0.1-0.8,0.2-1.2c0.2-0.6,0.6-0.9,1.1-0.9s0.9,0.1,1.3,0.3s0.6,0.5,0.8,0.7c0.8-0.7,1.8-1,2.9-1c1.1,0,1.9,0.3,2.4,0.9
				s0.8,1.6,0.8,3v5.8c0,0.2-0.6,0.2-1.7,0.2c-1.1,0-1.7-0.1-1.7-0.2V34c0-0.6-0.2-1-0.7-1c-0.1,0-0.3,0.1-0.5,0.2
				c-0.2,0.1-0.4,0.2-0.4,0.2V39.7z"/>
			<path d="M112.7,26.3c0-0.2,0.5-0.3,1.5-0.3c0.3,0,0.8,0,1.2,0.1s0.7,0.1,0.7,0.2v10.2h0.7c0.3,0,0.5,0.3,0.6,0.9
				c0,0.2,0,0.4,0,0.7s-0.1,0.6-0.3,1.1c-0.3,0.6-0.7,0.9-1.2,0.9c-0.4,0-0.8-0.1-1.1-0.3c-0.3-0.2-0.6-0.3-0.7-0.5l-0.2-0.3
				c-0.7,0.7-1.6,1-2.7,1c-1.1,0-2-0.4-2.8-1.3c-0.8-0.9-1.1-2.1-1.1-3.7c0-1.6,0.4-2.8,1.2-3.7c0.8-0.9,1.8-1.3,3-1.3
				c0.3,0,0.7,0,1.1,0.1V26.3z M112.1,33c-0.7,0-1.1,0.7-1.1,2c0,0.7,0.1,1.1,0.3,1.4c0.2,0.3,0.4,0.4,0.7,0.4
				c0.3,0,0.5-0.1,0.7-0.3v-3.3C112.5,33.1,112.3,33,112.1,33z"/>
		</g>
	</g>
</g>
</svg>
